<svg width="19" height="10" viewBox="0 0 19 10" fill="none" xmlns="http://www.w3.org/2000/svg">
<path d="M9.1813 7.09232L9.49589 7.35527L9.81536 7.09827L16.7516 1.51827L16.7534 1.51682C16.8344 1.45106 16.9276 1.40195 17.0276 1.37232C17.1276 1.34268 17.2325 1.33311 17.3362 1.34414C17.4399 1.35518 17.5405 1.38661 17.632 1.43662C17.7236 1.48663 17.8043 1.55424 17.8696 1.63557L17.8696 1.63557L17.8713 1.63763C17.9371 1.71861 17.9862 1.81178 18.0158 1.9118C18.0455 2.01182 18.055 2.11671 18.044 2.22044C18.033 2.32417 18.0015 2.4247 17.9515 2.51625C17.9015 2.60779 17.8339 2.68855 17.7526 2.75388L17.7522 2.7542L10.0022 8.99295L10.0022 8.99293L9.9982 8.99617C9.85655 9.11261 9.67886 9.17627 9.49549 9.17627C9.31261 9.17627 9.13539 9.11295 8.99392 8.9971C8.99354 8.99679 8.99316 8.99649 8.99279 8.99617L1.24538 2.53999L1.24441 2.53918C1.16424 2.47272 1.09798 2.3911 1.04941 2.29899C1.00084 2.20688 0.970915 2.1061 0.961355 2.00241C0.951796 1.89872 0.962786 1.79416 0.993696 1.69472C1.02461 1.59529 1.07483 1.50292 1.14149 1.42293L1.14152 1.42296L1.14568 1.41784C1.21934 1.32702 1.31221 1.25366 1.41761 1.20301C1.52268 1.15252 1.63759 1.12586 1.75415 1.12493C1.93839 1.12485 2.1169 1.18904 2.2589 1.30644C2.25913 1.30663 2.25937 1.30682 2.2596 1.30701L9.1813 7.09232Z" fill="#F7931E" stroke="black"/>
</svg>
