<svg width="34" height="34" viewBox="0 0 34 34" fill="none" xmlns="http://www.w3.org/2000/svg">
<path d="M22.8438 16.4688H18.4959C18.4167 16.2466 18.289 16.0447 18.1222 15.8779C17.9553 15.7111 17.7535 15.5834 17.5313 15.5041V9.03129C17.5313 8.89039 17.4753 8.75527 17.3757 8.65564C17.276 8.55601 17.1409 8.50004 17 8.50004C16.8591 8.50004 16.724 8.55601 16.6244 8.65564C16.5247 8.75527 16.4688 8.89039 16.4688 9.03129V15.5041C16.2152 15.5933 15.9883 15.7453 15.8095 15.9459C15.6306 16.1465 15.5055 16.3893 15.4459 16.6514C15.3862 16.9135 15.3941 17.1864 15.4686 17.4447C15.5431 17.7029 15.6818 17.9381 15.8719 18.1281C16.062 18.3182 16.2971 18.457 16.5554 18.5315C16.8137 18.606 17.0866 18.6138 17.3487 18.5542C17.6108 18.4946 17.8535 18.3695 18.0541 18.1906C18.2547 18.0117 18.4067 17.7849 18.4959 17.5313H22.8438C22.9846 17.5313 23.1198 17.4753 23.2194 17.3757C23.319 17.2761 23.375 17.1409 23.375 17C23.375 16.8591 23.319 16.724 23.2194 16.6244C23.1198 16.5248 22.9846 16.4688 22.8438 16.4688ZM17 17.5313C16.8949 17.5313 16.7922 17.5001 16.7049 17.4418C16.6175 17.3834 16.5494 17.3004 16.5092 17.2033C16.469 17.1063 16.4585 16.9995 16.479 16.8964C16.4995 16.7933 16.5501 16.6987 16.6244 16.6244C16.6986 16.5501 16.7933 16.4995 16.8964 16.479C16.9994 16.4585 17.1062 16.469 17.2033 16.5092C17.3004 16.5494 17.3833 16.6175 17.4417 16.7049C17.5001 16.7923 17.5313 16.895 17.5313 17C17.5311 17.1409 17.475 17.2759 17.3755 17.3755C17.2759 17.4751 17.1408 17.5311 17 17.5313ZM34 17C34.0004 14.3202 33.3673 11.6783 32.1523 9.28977C30.9372 6.90124 29.1748 4.83378 27.0086 3.25606C24.8425 1.67835 22.3341 0.635073 19.688 0.211356C17.0419 -0.212362 14.3331 -0.00451953 11.7826 0.817926C9.23214 1.64037 6.91222 3.05412 5.01214 4.94383C3.11205 6.83355 1.68562 9.14569 0.849226 11.6916C0.0128302 14.2376 -0.209838 16.9452 0.199387 19.5935C0.608612 22.2419 1.63814 24.756 3.20397 26.9308C3.19562 26.9848 3.19012 27.0392 3.1875 27.0938V28.1563C3.18796 28.5788 3.35602 28.9839 3.65481 29.2827C3.9536 29.5815 4.35871 29.7496 4.78125 29.75H5.3125V30.9039C5.31302 31.4431 5.52745 31.96 5.90873 32.3413C6.29001 32.7226 6.80698 32.937 7.34619 32.9375H7.52881C7.91127 32.9365 8.28554 32.8267 8.60792 32.6209C8.73742 33.0205 8.98983 33.369 9.32913 33.6167C9.66844 33.8644 10.0773 33.9985 10.4974 34H10.7526C11.2822 33.9994 11.7898 33.7887 12.1642 33.4143C12.5387 33.0399 12.7493 32.5322 12.75 32.0027V29.75H21.25V32.0027C21.2507 32.5322 21.4613 33.0398 21.8358 33.4143C22.2102 33.7887 22.7178 33.9994 23.2474 34H23.5026C23.9227 33.9985 24.3316 33.8644 24.6709 33.6167C25.0102 33.369 25.2626 33.0205 25.3921 32.6209C25.7145 32.8267 26.0887 32.9365 26.4712 32.9375H26.6538C27.193 32.937 27.71 32.7226 28.0913 32.3413C28.4726 31.96 28.687 31.4431 28.6875 30.9039V29.75H29.2188C29.6413 29.7496 30.0464 29.5815 30.3452 29.2827C30.644 28.9839 30.812 28.5788 30.8125 28.1563V27.0938C30.8099 27.0392 30.8044 26.9848 30.796 26.9308C32.886 24.042 34.0076 20.5656 34 17ZM5.3125 28.6875H4.78125C4.64041 28.6874 4.50539 28.6313 4.4058 28.5317C4.30621 28.4321 4.25018 28.2971 4.25 28.1563V27.0938C4.25018 26.9529 4.30621 26.8179 4.4058 26.7183C4.50539 26.6188 4.64041 26.5627 4.78125 26.5625H5.3125V28.6875ZM8.5 30.9039C8.49967 31.1613 8.39724 31.4082 8.21518 31.5902C8.03312 31.7723 7.78629 31.8747 7.52881 31.875H7.34619C7.08872 31.8747 6.84188 31.7723 6.65982 31.5902C6.47776 31.4082 6.37533 31.1613 6.375 30.9039V25.4087C6.37533 25.1513 6.47776 24.9044 6.65982 24.7224C6.84188 24.5403 7.08872 24.4379 7.34619 24.4375H7.52881C7.78629 24.4379 8.03312 24.5403 8.21518 24.7224C8.39724 24.9044 8.49967 25.1513 8.5 25.4087V30.9039ZM11.6875 32.0027C11.6873 32.2505 11.5887 32.4882 11.4134 32.6635C11.2382 32.8388 11.0005 32.9373 10.7526 32.9375H10.4974C10.2495 32.9373 10.0118 32.8388 9.83656 32.6635C9.66128 32.4882 9.56272 32.2505 9.5625 32.0027V23.2474C9.56272 22.9995 9.66128 22.7619 9.83656 22.5866C10.0118 22.4113 10.2495 22.3128 10.4974 22.3125H10.7526C11.0005 22.3128 11.2382 22.4113 11.4134 22.5866C11.5887 22.7619 11.6873 22.9995 11.6875 23.2474V32.0027ZM21.25 28.6875H12.75V26.5625H21.25V28.6875ZM24.4375 25.4087V32.0027C24.4373 32.2505 24.3387 32.4882 24.1635 32.6635C23.9882 32.8388 23.7505 32.9373 23.5026 32.9375H23.2474C22.9995 32.9373 22.7618 32.8388 22.5866 32.6635C22.4113 32.4882 22.3127 32.2505 22.3125 32.0027V23.2474C22.3127 22.9995 22.4113 22.7619 22.5866 22.5866C22.7618 22.4113 22.9995 22.3128 23.2474 22.3125H23.5026C23.7505 22.3128 23.9882 22.4113 24.1634 22.5866C24.3387 22.7619 24.4373 22.9995 24.4375 23.2474V25.4087ZM27.625 30.9039C27.6247 31.1613 27.5222 31.4082 27.3402 31.5902C27.1581 31.7723 26.9113 31.8747 26.6538 31.875H26.4712C26.2137 31.8747 25.9669 31.7723 25.7848 31.5902C25.6028 31.4082 25.5003 31.1613 25.5 30.9039V25.4087C25.5003 25.1513 25.6028 24.9044 25.7848 24.7224C25.9669 24.5403 26.2137 24.4379 26.4712 24.4375H26.6538C26.9113 24.4379 27.1581 24.5403 27.3402 24.7224C27.5222 24.9044 27.6247 25.1513 27.625 25.4087V30.9039ZM27.8149 23.7431C27.475 23.5038 27.0695 23.3753 26.6538 23.375H26.4712C26.1308 23.3773 25.7966 23.4661 25.5 23.633V23.2474C25.4993 22.7179 25.2887 22.2102 24.9142 21.8358C24.5398 21.4614 24.0322 21.2507 23.5026 21.25H23.2474C22.7179 21.2507 22.2102 21.4614 21.8358 21.8358C21.4613 22.2102 21.2507 22.7179 21.25 23.2474V25.5H12.75V23.2474C12.7493 22.7179 12.5387 22.2102 12.1642 21.8358C11.7898 21.4614 11.2822 21.2507 10.7526 21.25H10.4974C9.96784 21.2507 9.46019 21.4614 9.08576 21.8358C8.71132 22.2102 8.50067 22.7179 8.5 23.2474V23.633C8.20337 23.4661 7.86917 23.3773 7.52881 23.375H7.34619C6.9305 23.3753 6.52502 23.5038 6.18512 23.7431C5.01842 21.8738 4.35842 19.733 4.27004 17.5313H5.84375C5.98465 17.5313 6.11977 17.4753 6.2194 17.3757C6.31903 17.2761 6.375 17.1409 6.375 17C6.375 16.8591 6.31903 16.724 6.2194 16.6244C6.11977 16.5248 5.98465 16.4688 5.84375 16.4688H4.27587C4.39214 13.4585 5.58029 10.5887 7.62602 8.37728L8.73554 9.48679C8.83549 9.58475 8.97007 9.6393 9.11002 9.6386C9.24997 9.63789 9.38399 9.58198 9.48295 9.48302C9.58191 9.38406 9.63782 9.25004 9.63853 9.11009C9.63923 8.97014 9.58468 8.83556 9.48672 8.73561L8.37718 7.626C10.5886 5.58009 13.4584 4.39194 16.4688 4.27591V5.84379C16.4688 5.98469 16.5247 6.11981 16.6244 6.21944C16.724 6.31907 16.8591 6.37504 17 6.37504C17.1409 6.37504 17.276 6.31907 17.3757 6.21944C17.4753 6.11981 17.5313 5.98469 17.5313 5.84379V4.27591C20.5416 4.39193 23.4114 5.58008 25.6228 7.62597L24.5132 8.73557C24.4631 8.78472 24.4232 8.84331 24.3958 8.90797C24.3685 8.97263 24.3542 9.04207 24.3539 9.11228C24.3535 9.18249 24.3671 9.25207 24.3938 9.317C24.4205 9.38194 24.4598 9.44093 24.5094 9.49058C24.5591 9.54022 24.6181 9.57953 24.683 9.60624C24.7479 9.63294 24.8175 9.64651 24.8877 9.64615C24.9579 9.6458 25.0274 9.63153 25.092 9.60417C25.1567 9.57681 25.2153 9.53691 25.2644 9.48676L26.374 8.37725C28.4197 10.5887 29.6079 13.4584 29.7241 16.4688H28.1563C28.0154 16.4688 27.8802 16.5248 27.7806 16.6244C27.681 16.724 27.625 16.8591 27.625 17C27.625 17.1409 27.681 17.2761 27.7806 17.3757C27.8802 17.4753 28.0154 17.5313 28.1563 17.5313H29.73C29.6416 19.733 28.9816 21.8738 27.8149 23.7431ZM29.75 28.1563C29.7498 28.2971 29.6938 28.4321 29.5942 28.5317C29.4946 28.6313 29.3596 28.6874 29.2188 28.6875H28.6875V26.5625H29.2188C29.3596 26.5627 29.4946 26.6188 29.5942 26.7183C29.6938 26.8179 29.7498 26.9529 29.75 27.0938V28.1563ZM30.2322 25.874C29.9489 25.634 29.59 25.5016 29.2188 25.5H28.6875V25.4087C28.6875 25.1329 28.631 24.86 28.5215 24.6068C29.898 22.5251 30.6848 20.1094 30.7982 17.6163C30.9117 15.1232 30.3476 12.646 29.1658 10.4479C27.9841 8.24977 26.2289 6.41289 24.0868 5.13245C21.9447 3.85201 19.4956 3.17586 17 3.17586C14.5044 3.17586 12.0553 3.85201 9.91322 5.13245C7.7711 6.41289 6.0159 8.24977 4.83417 10.4479C3.65244 12.646 3.08833 15.1232 3.20178 17.6163C3.31524 20.1094 4.10202 22.5251 5.47852 24.6068C5.36902 24.86 5.31252 25.1329 5.3125 25.4087V25.5H4.78125C4.40997 25.5016 4.05113 25.634 3.76784 25.874C2.38111 23.8064 1.49813 21.4427 1.18967 18.9723C0.881207 16.5019 1.15586 13.9936 1.9916 11.6485C2.82735 9.30335 4.20093 7.18668 6.00223 5.46815C7.80352 3.74962 9.98242 2.47704 12.3642 1.75245C14.746 1.02786 17.2645 0.871407 19.7176 1.29564C22.1708 1.71988 24.4904 2.71299 26.4906 4.19537C28.4907 5.67775 30.1157 7.60814 31.2353 9.83179C32.3549 12.0554 32.9378 14.5105 32.9375 17C32.9423 20.1619 32.0001 23.2527 30.2322 25.874Z" fill="#F7931E"/>
</svg>
