<svg width="64" height="64" viewBox="0 0 64 64" fill="none" xmlns="http://www.w3.org/2000/svg">
<path d="M7.2 42.4001H12V43.2001C12 44.9646 13.4355 46.4001 15.2 46.4001H20C21.7645 46.4001 23.2 44.9646 23.2 43.2001V36.8001H40.8V43.2001C40.8 44.9646 42.2355 46.4001 44 46.4001H48.8C50.5645 46.4001 52 44.9646 52 43.2001V42.4001H56.8C58.5645 42.4001 60 40.9646 60 39.2001V24.8001C60 23.0356 58.5645 21.6001 56.8 21.6001H52V20.8001C52 19.0356 50.5645 17.6001 48.8 17.6001H44C42.2355 17.6001 40.8 19.0356 40.8 20.8001V27.2001H23.2V20.8001C23.2 19.0356 21.7645 17.6001 20 17.6001H15.2C13.4355 17.6001 12 19.0356 12 20.8001V21.6001H7.2C5.43555 21.6001 4 23.0356 4 24.8001V39.2001C4 40.9646 5.43555 42.4001 7.2 42.4001ZM56.8 24.8001V39.2001H52V24.8001H56.8ZM44 20.8001H48.8V24.8001V39.2001V43.2001H44V20.8001ZM40.6 30.4001V33.6001H23.2V30.4001H40.6ZM15.2 20.8001H20L20.0005 27.2001H20V36.8001H20.0014L20.002 43.2001H15.2V39.2001V24.8001V20.8001ZM7.2 24.8001H12V39.2001H7.2V24.8001Z" fill="#F7931E"/>
</svg>
