<svg width="64" height="64" viewBox="0 0 64 64" fill="none" xmlns="http://www.w3.org/2000/svg">
<path d="M37.3333 20.6668C37.3333 17.7202 34.9467 15.3335 32 15.3335C29.0533 15.3335 26.6667 17.7202 26.6667 20.6668C26.6667 23.6135 29.0533 26.0002 32 26.0002C34.9467 26.0002 37.3333 23.6135 37.3333 20.6668ZM29.3333 20.6668C29.3333 19.2002 30.5333 18.0002 32 18.0002C33.4667 18.0002 34.6667 19.2002 34.6667 20.6668C34.6667 22.1335 33.4667 23.3335 32 23.3335C30.5333 23.3335 29.3333 22.1335 29.3333 20.6668Z" fill="#F7931E"/>
<path d="M5.33334 54H58.6667C59.1333 54 59.56 53.76 59.8 53.36C60.04 52.96 60.0667 52.48 59.8533 52.0667L49.1867 30.7333C48.96 30.28 48.5067 30 48 30H39.6933C41.6667 25.64 42.6667 22.4933 42.6667 20.6667C42.6667 14.7867 37.88 10 32 10C26.12 10 21.3333 14.7867 21.3333 20.6667C21.3333 22.4933 22.3333 25.64 24.3067 30H16C15.4933 30 15.04 30.28 14.8133 30.7333L4.14667 52.0667C3.93334 52.48 3.96 52.9733 4.2 53.36C4.44 53.76 4.86667 54 5.33334 54ZM24 20.6667C24 16.2533 27.5867 12.6667 32 12.6667C36.4133 12.6667 40 16.2533 40 20.6667C40 23.72 35.9733 32.08 32 39.28C28.0267 32.08 24 23.72 24 20.6667ZM16.8267 32.6667H25.56C28.0533 37.8133 30.7333 42.4667 30.8533 42.6667C31.3333 43.4933 32.6933 43.4933 33.16 42.6667C33.28 42.4667 35.96 37.8133 38.4533 32.6667H47.1867L56.52 51.3333H7.49334L16.8267 32.6667Z" fill="#F7931E"/>
</svg>
