<svg width="24" height="24" viewBox="0 0 24 24" fill="none" xmlns="http://www.w3.org/2000/svg">
<path fill-rule="evenodd" clip-rule="evenodd" d="M22.9091 17.3673V20.64C22.9103 20.9438 22.8481 21.2446 22.7264 21.5229C22.6046 21.8013 22.4261 22.0512 22.2023 22.2566C21.9784 22.462 21.7141 22.6184 21.4263 22.7157C21.1385 22.813 20.8335 22.8492 20.5309 22.8218C17.174 22.4571 13.9494 21.31 11.1164 19.4727C8.48053 17.7978 6.24581 15.5631 4.5709 12.9273C2.72724 10.0813 1.57989 6.8411 1.22181 3.46911C1.19455 3.16744 1.2304 2.86339 1.32708 2.57633C1.42376 2.28928 1.57916 2.0255 1.78337 1.80179C1.98758 1.57807 2.23614 1.39934 2.51321 1.27695C2.79029 1.15456 3.08981 1.09121 3.39272 1.09093H6.66544C7.19487 1.08572 7.70813 1.27319 8.10955 1.61842C8.51097 1.96364 8.77316 2.44305 8.84726 2.96729C8.98581 4.01456 9.24108 5.04329 9.6109 6.03274C9.75767 6.42321 9.78944 6.84756 9.70243 7.25552C9.61543 7.66348 9.41329 8.03796 9.11999 8.33456L7.73453 9.72002C9.2875 12.4512 11.5488 14.7125 14.28 16.2655L15.6654 14.88C15.962 14.5867 16.3365 14.3846 16.7445 14.2976C17.1524 14.2106 17.5768 14.2423 17.9673 14.3891C18.9567 14.7589 19.9854 15.0142 21.0327 15.1527C21.5626 15.2275 22.0466 15.4944 22.3926 15.9027C22.7385 16.3111 22.9224 16.8323 22.9091 17.3673Z" stroke="#F7931E" stroke-width="2" stroke-linecap="round" stroke-linejoin="round"/>
</svg>
