<svg width="18" height="24" viewBox="0 0 18 24" fill="none" xmlns="http://www.w3.org/2000/svg">
<path d="M14.8435 2.06087C13.3565 0.730435 11.2696 0 8.99999 0C6.73043 0 4.64347 0.730435 3.15651 2.06087C1.33043 3.67826 0.391296 6.10435 0.391296 9.13043C0.391296 15.6783 7.93043 23.3739 8.26956 23.687C8.47825 23.8957 8.73912 24 8.99999 24C9.26086 24 9.54782 23.8957 9.73043 23.687C10.0696 23.3739 17.6087 15.6783 17.6087 9.13043C17.6087 6.10435 16.6696 3.67826 14.8435 2.06087ZM8.99999 21.4174C8.29564 20.6348 7.1739 19.3304 6.07825 17.7652C3.73043 14.4261 2.47825 11.4522 2.47825 9.13043C2.47825 2.6087 7.46086 2.08696 8.99999 2.08696C15.0522 2.08696 15.5217 7.48696 15.5217 9.13043C15.5217 13.7217 10.8522 19.3826 8.99999 21.4174ZM8.99999 4.51304C6.70434 4.51304 4.85217 6.41739 4.85217 8.73913C4.85217 11.0609 6.70434 12.9391 8.99999 12.9391C11.2956 12.9391 13.1478 11.0348 13.1478 8.71304C13.1478 6.3913 11.2956 4.51304 8.99999 4.51304ZM8.99999 11.113C7.72173 11.113 6.67825 10.0435 6.67825 8.71304C6.67825 7.38261 7.72173 6.31304 8.99999 6.31304C10.2783 6.31304 11.3217 7.38261 11.3217 8.71304C11.3217 10.0435 10.2783 11.113 8.99999 11.113Z" fill="#F7931E"/>
</svg>
