<svg width="31" height="18" viewBox="0 0 31 18" fill="none" xmlns="http://www.w3.org/2000/svg">
<path d="M29.322 1.22988C29.0082 2.23263 28.5491 3.18398 27.9595 4.05363L27.9832 4.01613C27.4232 4.94946 26.7545 6.0278 25.977 7.25113C25.3103 8.21696 24.9574 8.71696 24.9182 8.75113C24.7401 8.97424 24.6248 9.24096 24.5845 9.52363L24.5832 9.53238C24.6151 9.78707 24.7333 10.0231 24.9182 10.2011L25.4182 10.7586C28.0932 13.5078 29.5978 15.4028 29.932 16.4436C29.9954 16.6146 30.0157 16.7985 29.9913 16.9792C29.9669 17.1599 29.8985 17.3319 29.792 17.4799L29.7945 17.4761C29.6686 17.6059 29.5152 17.7058 29.3456 17.7683C29.176 17.8309 28.9945 17.8545 28.8145 17.8374H28.8195H25.5245C25.1032 17.8374 24.7157 17.6899 24.412 17.4449L24.4157 17.4474C23.9821 17.0918 23.5839 16.6949 23.227 16.2624L23.2157 16.2474C22.6399 15.5965 22.1291 15.0486 21.6832 14.6036C20.1982 13.192 19.1024 12.4861 18.3957 12.4861C18.1677 12.4657 17.9396 12.5254 17.7507 12.6549L17.7545 12.6524C17.6734 12.7541 17.6138 12.8713 17.5794 12.9968C17.545 13.1223 17.5365 13.2535 17.5545 13.3824V13.3774C17.5059 13.9606 17.49 14.5461 17.507 15.1311V15.1099V16.5586C17.5425 16.7317 17.5303 16.9111 17.4717 17.0778C17.4132 17.2444 17.3104 17.3921 17.1745 17.5049L17.1732 17.5061C16.5402 17.7921 15.8433 17.9072 15.152 17.8399L15.1682 17.8411C13.276 17.8087 11.4284 17.2607 9.82449 16.2561L9.86824 16.2811C8.01873 15.1661 6.43344 13.6627 5.22199 11.8749L5.18824 11.8224C4.01228 10.2542 2.9786 8.58427 2.09949 6.83238L2.01199 6.63988C1.42619 5.50543 0.911446 4.33568 0.470737 3.13738L0.395737 2.90613C0.191407 2.28405 0.0613371 1.64 0.0082373 0.987383L0.0057373 0.956133C0.0057373 0.324466 0.377404 0.00863307 1.12074 0.00863307H4.40824C4.7406 -0.0173979 5.07053 0.083054 5.33199 0.289883L5.32949 0.287383C5.57949 0.561133 5.76449 0.897382 5.85574 1.27238L5.85949 1.28738C6.4026 2.84278 7.06585 4.35358 7.84324 5.80613L7.75949 5.63488C8.32135 6.77616 9.00131 7.8554 9.78824 8.85488L9.75949 8.81613C10.4262 9.63446 10.9462 10.0436 11.3195 10.0436L11.3595 10.0449C11.4474 10.045 11.5338 10.022 11.6099 9.97808C11.6861 9.93419 11.7493 9.871 11.7932 9.79488L11.7945 9.79238C11.9142 9.47908 11.9616 9.14281 11.9332 8.80863V8.81613V3.96738C11.9099 3.41763 11.7737 2.87855 11.5332 2.38363L11.5432 2.40738C11.3974 2.09284 11.2081 1.80039 10.9807 1.53863L10.9845 1.54363C10.7749 1.33437 10.6385 1.06296 10.5957 0.769883L10.5945 0.762382C10.5945 0.549883 10.692 0.358633 10.8445 0.233633L10.8457 0.232383C11.0027 0.0886562 11.2079 0.00922892 11.4207 0.00988297H16.6132C16.7436 -0.00532883 16.8757 0.0120629 16.9976 0.0604974C17.1196 0.108932 17.2276 0.186894 17.312 0.287383L17.3132 0.288633C17.4711 0.580352 17.5402 0.911884 17.512 1.24238V1.23613V7.70238C17.4921 7.95742 17.5515 8.21238 17.682 8.43238L17.6795 8.42738C17.7253 8.4958 17.7872 8.55188 17.8598 8.59069C17.9324 8.6295 18.0134 8.64982 18.0957 8.64988H18.097C18.3078 8.63618 18.5111 8.56626 18.6857 8.44738L18.682 8.44988C19.022 8.21613 19.3145 7.94988 19.5682 7.64863L19.5732 7.64238C20.3455 6.7686 21.0379 5.82733 21.642 4.82988L21.6907 4.74238C22.1207 4.02988 22.5857 3.15238 23.007 2.25113L23.0845 2.06738L23.642 0.952382C23.7402 0.664089 23.9295 0.415583 24.1814 0.244419C24.4333 0.0732548 24.7341 -0.0112648 25.0382 0.00363283H25.0345H28.3232C29.2116 0.00363283 29.5449 0.412383 29.3232 1.22988H29.322Z" fill="white"/>
</svg>
