<svg width="64" height="64" viewBox="0 0 64 64" fill="none" xmlns="http://www.w3.org/2000/svg">
<path fill-rule="evenodd" clip-rule="evenodd" d="M62.6667 53.3333C62.6667 57.016 59.6827 60 56 60H7.99999C4.31733 60 1.33333 57.016 1.33333 53.3333V14.6666C1.33333 11.7213 3.72133 9.33329 6.66666 9.33329H33.5613L44.36 5.42129C45.044 5.17196 45.8013 5.5253 46.0507 6.20663L47.188 9.33329H52C54.9453 9.33329 57.3333 11.7213 57.3333 14.6666V17.3333C60.2787 17.3333 62.6667 19.7213 62.6667 22.6666V53.3333ZM6.66666 12C5.19466 12 3.99999 13.1946 3.99999 14.6666C3.99999 16.1386 5.19466 17.3333 6.66666 17.3333H11.26H11.512C11.5293 17.3266 11.54 17.312 11.5573 17.3053L26.2 12H6.66666ZM45.4373 12.2413L44.0213 8.34263H44.02L41.2853 9.33329H41.2893L33.9373 12H33.924L19.2053 17.3333H47.288L45.4373 12.2413ZM54.6667 14.6666C54.6667 13.1946 53.472 12 52 12H48.156L50.0947 17.3333H54.6667V14.6666ZM57.3333 20H6.66666C5.69066 20 4.78666 19.7186 3.99999 19.26V53.3333C3.99999 55.5426 5.79199 57.3333 7.99999 57.3333H56C58.2093 57.3333 60 55.5426 60 53.3333V44H54.6667C51.7213 44 49.3333 41.612 49.3333 38.6666C49.3333 35.7213 51.7213 33.3333 54.6667 33.3333H60V22.6666C60 21.1946 58.8053 20 57.3333 20ZM60 41.3333V36H54.6667C53.1947 36 52 37.1946 52 38.6666C52 40.1386 53.1947 41.3333 54.6667 41.3333H60ZM54.6667 37.3333H57.3333V40H54.6667V37.3333Z" fill="#F7931E"/>
</svg>
